<svg version="1.1" xmlns="http://www.w3.org/2000/svg" viewBox="0 0 1338 1176" preserveAspectRatio="xMidYMid meet">
<path d="M0,0H1338V1176H0Z" fill="#FCF9F2"/>
<path d="M416,223l5,1l-7,14l-2,11l-3,30l-2,11l-7,20l-8,12l-8,10l-12,12l-12,9l-13,8l-23,11l-7,3l-8,6l-6,5l-12,23l-4,24l-4,20l-7,45l-1,11l-1,3v12l-1,14l8-16l5-15l3-12l4-13l5-13l6-10l4-8l10-14l14-15l4-4l7-6l5-3l13-9l24-11l9-4l18-6l14-6h5l-1,5l-5,5l-5,7l-3,9h-2l-2,9l-4,12l-5,10l-4,12l-10,15l-9,12l-7,8l-6,4l-9,8l-11,7l-11,6l-9,3l-13,5l-10,4l-6,3l-8,6l-8,10l-4,9l-6,13l-2,9l-2,24l-1,27l3,36l3,22l1,3v7h2l1-6l9-14l6-12l4-13l5-16l5-15l10-21l12-18l12-14l8-7l4-1l1-3l10-6l2-2l16-6l4-2l14-3l5-2l11-1l13-3h5l1,4l-7,4l-7,11l-8,16l-8,23l-8,16l-8,13l-8,11l-12,11l-10,8l-12,7l-16,7l-17,5l-13,7l-10,8l-5,7l-6,16l-1,6v8l5,28l4,18l4,15l4,11l6,16l7,16l15,31l4,8v2h2V840l2-10l1-28h1l1,12l2,3v6l5-1l-3,9l-2,5v20l1,10l9,17l11,19l8,13l8,11l3,6l6,7l8,11l12,14l7,8l3,3v2h2l-2-8l-2-19l-3-6l-3-10l-4-16v-9h2v2l3,1l-2,4l4,13l1,3l4,1l4-4l-1-10l-1-4h2v2l5-1l1,2h2l-1,8v10h6l-1,3h-2l-1,5l-4,8l-2,10l1,10l3,13l8,11l29,29l11,9l8,7l9,7l3,2v5l-5,1l-17-13l-15-15l-8-7l-22-22l-7-8l-14-15l-9-11l-12-14l-9-13l-7-4l-4-5l-14-7l-3-1v-6l-9-1l-5-3v-4l9,3l-1-6l3,1l6,8l12,7l-12-19l-12-21l-6-11l-8-16l-10-18l-4-9l-9-17l-6-15l-3-7l-6-9l-8-10l-9-10l-9-6l-14-5l-3-1l-15-2l-17-4l-6-3l-6-2l-11-6l-10-7l-8-6l-7-8l-8-8l-12-16v-4l-3-1l-7-12l-5-10l-4-7l-3-9l-5-10l-8-11l-4-5l-10-7l1-3h6l15,4l10,4l3,2l11,3l16,6l8,4l15,8l5,3l4,3l7,3v2l4,2l5,2l5,6l6,4l5,5l8,9l9,13l12,23l2,6l11,24l6,9l8,6l8,8l-4-17l-3-16l-3-15l-4-30l-5-33l-5-15l-6-12l-9-10l-6-4l-8-4l-4-1v-3l5,1v2l4-2l-5-5l-3-9l-3-1l-1-3h2v-4h2l1-4l2,3l1,7l5,5v3l4,1l1,4l2-1l1-10h2l8,26l7,11l1-47l3-29l1-15V525l-4-17l-6-12l-9-10l-3-4l5,2l4,1l1-4l-7-1l-2-1v-3h2l2-6h2l-3-5l1-3l2,2v-6l-1-5v-6l3,3l5,8h3V445l-1-1v-8h-2v-5l-3-1l1-7l-9,9l-4-3l-2-5v-8h8l-2-12l-2-1l-1-3l-2-2v-4l-2-1l-2-8h-3v-4l4,2l11,19l8,19l5,18l2,15v30l1,16l2,8l2-12l6-42l4-20l3-19l1-3l3-29V372l-2-7l-2-11l-6-14l-7-9v-2h2l6,8l4,6l1-1l-2-9l2-1l1-7h2v2l3-1l1,8v17h2V341l2-7l5-5l1-8l4-2l-1,6l-8,21l-3,12l1,8l1,23l8-13l4-11l3-12l2-10l5-17l2-7l8-19l4-5l10-16l4-2l2-4l11-12l8-6l13-11l11-6l16-8l6-5Z" fill="#C26E6A"/>
<path d="M211,830h15l23,3l15,4l9,3l9,5l9,6l5,3l7,6l8,7l5,6l6,4l8,10l10,13l1,6v4l-5-1l-4-2l1,4l8,3l5,1v6H329l-6,2l-16,3l-9,1H283l-21-3l-7-3l-9-3l-10-6l-6-3l-11-9l-6-4l-10-10l-8-10l-6-7l-4-5l-1-3l-5-4l-4-6l-12-12l-9-3l1-4l17,1h12Z" fill="#F6D5CC"/>
<path d="M94,605h6l15,4l10,4l3,2l11,3l16,6l8,4l15,8l5,3l4,3l7,3v2l4,2l5,2l5,6l6,4l5,5l8,9l9,13l12,23l2,6l11,24l2,3h-4l-11-11h-3l-2-1l2,5l1,4l6,1l1,5l-4,1l-7-2l-15-2l-17-4l-6-3l-6-2l-11-6l-10-7l-8-6l-7-8l-8-8l-12-16v-4l-3-1l-7-12l-5-10l-4-7l-3-9l-5-10l-8-11l-4-5l-10-7Z" fill="#F5BBB7"/>
<path d="M426,373h5l-1,5l-5,5l-5,7l-3,9h-2l-2,9l-4,12l-5,10l-4,12l-10,15l-9,12l-7,8l-6,4l-9,8l-11,7l-11,6l-9,3l-13,5l-10,4l-7,3l-7-1l-5,6h-1l-1-8l4-17l5-15l5-13l6-10l4-8l10-14l14-15l4-4l7-6l5-3l13-9l24-11l9-4l18-6Z" fill="#F3C8BD"/>
<path d="M429,518h5l1,4l-7,4l-7,11l-8,16l-8,23l-8,16l-8,13l-8,11l-12,11l-10,8l-12,7l-16,7l-17,5l-6,1l-2-1l2-3h-7l-7,10l-3-4l3-11l4-11l4-13l5-15l10-21l12-18l12-14l8-7l4-1l1-3l10-6l2-2l16-6l4-2l14-3l5-2l11-1Z" fill="#F6C4BD"/>
<path d="M118,457l9,1l13,4l10,3l9,4l9,5l10,6l9,7l10,8l1,4l4,2l12,13l9,12l9,15l4,8l6,21l4,18v3h-2v10l-3,1l-2-4l-3-1v-3l-4-2l-2-3l-1-7l-1-2l-1,3h-2l-1,5l6,8l4,7l2,3l-5,1l-1-2l-4-1v2l-8-2l-16-8l-12-8l-8-7v-2h-2l-4-4v-2l-4-2l-2-4l-5-5l-6-8l-1-6h-2l-9-22l-6-22l-3-7l-3-10l-7-16l-7-8l-3-2Z" fill="#F7D4CA"/>
<path d="M440,669l5,1l-1,4l-5,4l-5,10l-7,21l-3,14l-5,16l-7,17l-9,15l-12,14l-8,8l-15,10l-15,8l-7,8l-4,4h-5l-3-9l-2,1l-1-16V778l4-23l6-16l8-15l10-14l9-9l14-11l15-6l42-14Z" fill="#F6D6CB"/>
<path d="M416,223l5,1l-7,14l-2,11l-3,30l-2,11l-7,20l-8,12l-8,10l-12,12l-12,9l-13,8l-23,11l-10,1v-3l-3,1l-5,5l1-16l2-7l2-10l5-17l2-7l8-19l4-5l10-16l4-2l2-4l11-12l8-6l13-11l11-6l16-8l6-5Z" fill="#EEA8A8"/>
<path d="M302,169h3v19l6,26l4,20l2,12v18l-1,16l-1,1l-3,15l-4,15l-3,9l-4,1l-2,10l-5,4l-2,16h-2l-1-20l-1-4h-2v-2h-2v7l-3,1l2,3l1,7h-3l-7-10l-2-4l-3,1l-4-6l-7-12l-6-16l-3-15V269l2-18l4-18l11-23l9-12l4-6l16-14l3-3Z" fill="#F5D2C7"/>
<path d="M474,788l4,1l-2,9v22l2,13l1,13v13l-2,12l-2,7l-5,13l-6,11l-7,10l-6,5l-4,5l-11,9l-5,6h-7l-1-1V926l2-8h-2l-1,4l-1-5l-2,1l-2-1v-2h-2l2,4l1,10l-4,2l-1,3l-5-2l-4-11l-1-6l1-3l-1-3h-2l-1,4V889l2-12l5-15l8-15l13-16l12-10l11-9l8-7l7-6Z" fill="#F5CBC1"/>
<path d="M174,321l4,2l13,13l9,7l11,9l8,7l7,8l8,9l2,5l-1,4h3l2,3v5l3,1l1,5l1,4l3,1l1,9v3l-6,1l-2-1l1,5l1,4l2,5l2,1l4-4l3-4h2v7l2,1v5h2l1,8l1,1v14l-5-1l-6-9v8l1,1v6l-3,1l3,5l-1,2l-1-1l-3,5h-2v3l9,2l-1,4l-3,1l-4-3l-4-1l-12-8l-11-9l-12-13l-7-9l-11-20l-4-13l-2-5l-2-9l-1-9l-1-39l-3-17l-3-6Zm67,78l1,2Z" fill="#EDA5A5"/>
<path d="M917,778h8l6,4l4,5l2,6v9l-5,16l-7,11l-9,10l-7,7l-17,13l-5,4l-9,22l-3,1l1-7l1-4l-1,1l-4,10v9l-5-1l-1-2v-8l5-12l7-11V850l-6-10l-10-11l-6-12l-1-8V799l4-8l8-7l2-1h9l8,4l7,9l9-10l10-6Z" fill="#93514D"/>
<path d="M303,319l1,4l-8,20l-4,15l1,8l1,23l8-13l5-12l1,4l-1,7l4-5h3v3l5-1l-5,5l-11,9l-12,23l-4,24l-4,20l-7,45l-1,11l-1,3v12l-1,14l11-22h1l1,5l5-6l7,1l-1,3l-6,4l-8,10l-4,9l-6,13l-2,9l-2,24l-1,27l3,39h-5l-1-5h-2l-8-20l-7-9l-8-7l-10-5l-4-1v-3l5,1v2l4-2l-5-5l-3-9l-3-1l-1-3h2v-4h2l1-4l2,3l1,7l5,5v3l4,1l1,4l2-1l1-10h2l8,26l7,11l1-47l3-29l1-15V525l-4-17l-6-12l-9-10l-3-4l5,2l4,1l1-4l-7-1l-2-1v-3h2l2-6h2l-3-5l1-3l2,2v-6l-1-5v-6l3,3l5,8h3V445l-1-1v-8h-2v-5l-3-1l1-7l-9,9l-4-3l-2-5v-8h8l-2-12l-2-1l-1-3l-2-2v-4l-2-1l-2-8h-3v-4l4,2l11,19l8,19l5,18l2,15v30l1,16l2,8l2-12l6-42l4-20l3-19l1-3l3-29V372l-2-7l-2-11l-6-14l-7-9v-2h2l6,8l4,6l1-1l-2-9l2-1l1-7h2v2l3-1l1,8v17h2V341l2-7l5-5l1-8Z" fill="#BA605D"/>
<path d="M147,624l10,3l4,4l1-3l19,9l6,5l7,3v2l4,2l5,2l5,6l6,4l5,5l8,9l9,13l5,10l1,5l3,8l4,9l-2,6h-2l-2-5h-5v-3l3-2v-5l-2-2l-10-1h-5l-3-5l-5-2l-6-4v2l-4-2l-2-4l-1-7l-10-1l-5-4l-9-5l-12-9v-2l-4-2l-15-14l-8-7l-3-3v-2l3-2l1-9Z" fill="#F4D0C7"/>
<path d="M184,345h2l2,8l4,2l-2,1v2h3l4,7l2-2l10,18l2,5l2,2l1,5l6,10l2,5l5-1v3l-4,1l5,10v2l5,1l4,5h-5l1,5l-5,1l-2,17l4,6l1,4l-4,8l3,1l-3,1l-13-12l-9-11l-7-9l-9-17l-4-13l-2-5l-2-9l-1-9V367l3-3l1-4l-2-12Z" fill="#F6C2BE"/>
<path d="M406,267h2l1,12l-2,11l-7,20l-8,12l-8,10l-12,12l-12,9l-13,8l-9,2l-9,4h-7l-2-1l2-4l7-7h4l-3-2l4-6l10-11h2l2-4l6-2l1-7l9-8h4l-1-5l-5,1h-2l-14,20l-7,8v-3l10-13l10-14l6-4l4-3l1-4l6-5l2-3l8-1h4l3-2l3-7Z" fill="#F6BFBB"/>
<path d="M94,605h6l15,4l10,4l3,2l11,3l16,6l6,3l1,2l-1,2l-3-1l-1-2l-10-3l-5,1l-1,9l-4,2l7,8l12,11l11,9l4,4l11,8l9,5l2,2l10,2v9l-4-1l-4,1l-3-8h-4l-4-2l-5-3l-10,4l-5-2h-5l-2,2l-5-1l-7-7v-2l-3,1l-1,2h-2l-7-12l-5-10l-4-7l-3-9l-5-10l-8-11l-4-5l-10-7Z" fill="#EBA19B"/>
<path d="M918,787h6l3,3v11l-4,14l-11,16l-15,14l-9,7l-2,1l-3-10l-7-10l-8-9l-5-13V801l5-8l2-1h8l6,5l5,13h6l6-11l9-8Z" fill="#FAF7F0"/>
<path d="M862,530l3,1l1,52l6-12l4-4h5l3,4l3,12l4-2l5-6l4-11l6-8l7-1l5,1l1,1l1,17l2,4l6,1l-2,4l-6,1l-5-6l-2-5l-6,9l-4,3l-5-1h-3l-6,5l-6-1l-4-8l-1-5l-2-1l-2,5l-8,16l-4,1l-2-2l-2-7l-9,11l-8,5h-8l-4-4l-1-3v-9l6-12l5-4h5l2,2l-1,5l-5-1l-4,5l-2,6v6l2,3l7-1l8-7l5-6h3V533Z" fill="#985B56"/>
<path d="M303,319l1,4l-8,20l-4,15l1,8l1,23l8-13l5-12l1,4l-1,7l4-5h3v3l5-1l-5,5l-11,9l-12,23l-4,24l-4,20l-7,45l-1,11l-4-1l-1-12l6-42l4-20l3-19l1-3l3-29V372l-2-7l-2-11l-6-14l-7-9v-2h2l6,8l4,6l1-1l-2-9l2-1l1-7h2v2l3-1l1,8v17h2V341l2-7l5-5l1-8Z" fill="#B25F5A"/>
<path d="M416,223l5,1l-7,14l-2,11l-2,23l-2,2v-7l-5,5l-8,11l-2,5l-4,3l-6-1l-5,1l-5,5l-5,4v-3l-2,3h-2v-5l4-4l4-8l2-3h2l1-5h2v4l10-16v-1l-1-3l1-2h2l1-7l-4-2v-5l-6,1v-2l16-9l10-5l3-3Z" fill="#EC9C9C"/>
<path d="M401,909h2v2l3,1l-2,4l4,13l1,3l4,1l4-4l-1-10l-1-4h2v2l5-1l1,2h2l-1,8v10h6l-1,3h-2l-1,5l-4,8l-2,10l1,10l3,13l8,11l29,29l11,9l8,7l9,7l3,2v5l-5,1l-17-13l-15-15l-8-7l-22-22l-7-8l-4-5l4-3l-2-5l-2-1l-3-27l-3-6l-3-10l-4-16Z" fill="#C66764"/>
<path d="M1134,382h7l5,2l1,1l2,19v20l-4,15l-6,9l-4,3h-8l-4-5v-9l4-1l1,8l5,1l4-4l4-10l1-4l1-28h-2l-1,5l-4,6l-4,3l-6-1l-2-2l-4,5l-3,2l-5-1l-3-3l-2-6v-7l-4,4l-8,19l-5-1V397l4-1l1,1l1,10l6-12l2-2h5l3,4l3,13l4-1l5-6l2-9l5-9Z" fill="#945651"/>
<path d="M320,839l3,3l8,15l6,9l2,1l8,16l11,19l8,13l8,11l3,6l6,7l8,11l12,14l7,8l4,5l4,4l1,3l-5,2l-10-10l-9-11l-12-14l-9-13l-7-4l-4-5l-14-7l-3-1v-6l-9-1l-5-3v-4l9,3l-1-6l3,1l6,8l12,7l-12-19l-12-21l-6-11l-14-28Z" fill="#BA6A66"/>
<path d="M977,538l9,1l2,2l1,5l1,15v17l-4,16l-4,8l-6,5l-7,1l-5-5v-9l3-1l2,8l4,1l3-1l2-4l4-11l1-4V557l-6,10l-3,2l-7-1h-3l-6,5l-5-1l-3-4l-2-8v-4h-2l-2,5l-7,16l-5,1l-1-1V554l2-2h3l1,12l6-12l3-3h5l3,7l2,12l8-7l3-9l5-10Z" fill="#945550"/>
<path d="M267,556h1v6h2v-2l2,1l-2,12l-2,42l3,39h-5l-1-5h-2l-8-20l-7-9l-8-7l-10-5l-4-1v-3l5,1v2l4-2l-5-5l-3-9l-3-1l-1-3h2v-4h2l1-4l2,3l1,7l5,5v3l4,1l1,4l2-1l1-10h2l8,26l7,11l1-47l2-18l1-6Z" fill="#D6988F"/>
<path d="M210,697l5,2l2,2l5,2l2,5l8-1l7,1l3,3v5l-4,2v3l6-1l1,6l2-1l1-5l-8-18l1-4l7,13l2,6l11,24l2,3h-4l-11-11h-3l-2-1l2,5l1,4l6,1l1,5l-4,1l-7-2l-15-2l-17-4l-5-3l2-2l4,1l6,3l7,1l-1-4l-3-3l-1-8l-3-1l3-3l8-2l-2-4l-5-4l1-2l3,2l-8-8l-6-4Z" fill="#EA9898"/>
<path d="M1072,602h5l2,2l-1,5l-5-1l-6,12l-2,10l-1,16l14-7l7,1l2-6l5-5h7l2,2l-1,7l-6,9l-4,3h-2l2,5l7-1l8-7l5-5h2l-1,4l-6,8l-7,6l-3,1h-7l-5-5l-1-7l1-6l-12,5l-6,4v48l-4,1l-1-1l-1-11V654h-2l1-5l1-21l3-12l5-10Z" fill="#955651"/>
<path d="M876,642l3,1l1,52l6-11l5-5l4,1l3,4l2,12l5-2l5-6l4-9l2-2l2-5l1-1l8,1l4,4l1,2v7l-4,8l-7,6l-7-1l-3-4l-5,6l-3,2l-5-1l-3-3l-3-11l-3,3l-8,16l-2,3l-4-1l-1-1V644Z" fill="#93534F"/>
<path d="M683,727l5,1l2,9v19h2l-4,19l-5,13l-5,6l-4,2h-5l-3-4l1-8l6-12l9-11l2-2l1-20h-2l-2,6l-6,9l-2,2h-7l-3-4l-1-5v-9l2-4l4,1v13l1,2l4-2l6-12Z" fill="#94544F"/>
<path d="M791,474h3l3,8l2,23l-2,10l-4,15l-6,9l-6,4l-4-1l-2-2V530l5-10l8-10l3-3l1-21h-2l-1,5l-6,10l-3,2h-6l-3-5l-1-2V484l2-2l4,1v12l1,2h2l5-8l5-13Z" fill="#965651"/>
<path d="M943,627h2l1,2v22l-1,8v23l2,5h5l5-5l2-12l5-9l5-4h6l2,2v6l-6,9l-6,5l1,4h6l9-7l5-6h2l-1,5l-9,10l-8,5l-7-1l-3-3l-8,7h-7l-5-6l-1-4V659l1-27Z" fill="#9A5F5B"/>
<path d="M742,594l10,2l1,15l2,6l7,1l-2,4l-7,1l-5-6l-1-5l-6,10l-4,3l-5-1l-3-5l-9,10l-5,4l-3,1h-7l-5-6V616l5-9l5-5h6l2,2l-1,4h-6l-4,6l-1,4v8l2,2l6-1l8-6l6-7l2-1l4-11l5-6Z" fill="#93534E"/>
<path d="M642,510l6,1l1,2v6l-6,9l-5,4l1,4h6l8-6l6-7l2,1l-2,5l-9,10l-7,4l-7-1l-4-4l-5,6l-7,1l-4-5l-2-11h-2l-2,5l-6,16l-5,1l-2-2V526l5-1l1,12l7-14l3-2l4,1l2,3l3,15l5-3l3-3l2-10l5-10Z" fill="#965955"/>
<path d="M235,381l4,2l11,19l8,19l5,18l1,6v9l-1,14v19l-4-2l-3,1l2,3l-1,4l-7-5l-6-5l2-1l5,3h2l1-4l-7-1l-2-1v-3h2l2-6h2l-3-5l1-3l2,2v-6l-1-5v-6l3,3l5,8h3V445l-1-1v-8h-2v-5l-3-1l1-7l-9,9l-4-3l-2-5v-8h8l-2-12l-2-1l-1-3l-2-2v-4l-2-1l-2-8h-3Z" fill="#DB7B7E"/>
<path d="M943,397h3l1,2l1,50l7-13l4-3l5,1l3,7l2,8l4-1l6-7l2-13l5-1l1,18l4,1l4-2l1,4l-6,4h-5l-5-6l-7,8l-1,1l-7-1l-4-8v-6l-4,4l-9,18h-4l-2-3l-1-26V400Z" fill="#955651"/>
<path d="M118,457l9,1l13,4l10,3l9,4l9,5v3l-7-3l1,6l-4,2l-1,7l-4-2l4,4l-1,2l-4-2l-4,1l-2-2v-3l-9,3l-11-22l-8-7Z" fill="#F5BCB3"/>
<path d="M291,768l3,3l7,21l8,18l15,31l4,8v2h2V840l2-10l1-28h1l1,12l2,3v6l5-1l-3,9l-2,5v31l-4-5l-10-18l-3-4l-4,1l-7-15l-9-17l-6-15l-3-7l-1-4l3-1l-1-7Z" fill="#BC6A65"/>
<path d="M786,702h5l1,4l-9,4l-5,6l-6,18l-4-1v-8h-2l-2,4l-7,6h-5l-4-5v-4h-2l-1,5l-7,9l-7,1l-4-5V723l2-6h4v17l4-1l5-8l4-12l2-2l4,1l1,15l1,2l5-2l7-8l1-12l4-1l1,1l1,7l6-8Z" fill="#92534F"/>
<path d="M872,418h6l1,1v5l-3,1l-4,1l-4,9l-2,11l-1,16l13-7h6l-1,4l-14,7l-3,1l2,39v11l-4,1l-2-5l-3-41l-1-5l1-1l2-30l5-12Z" fill="#975752"/>
<path d="M689,357h5l2,2l-1,7l-4,2l-1-5l-6,4l-10,9l-4,5l-1,8l4,4l19,9l6,7l-1,7l-8,9l-13,7l-9,1l-2-2l1-5l2-2h3v2l6-1l11-7l3-4v-5l-5-4l-16-7l-6-5l-1-2v-9l7-10l8-8Z" fill="#93544F"/>
<path d="M282,285l3,1l1,6v7h2l2,9h2l5-4l-2,5l-1,2l3-1l2,7l-2,6v7l-5,4l-3,4v-7l-1-4h-2v-2h-2v7l-3,1l2,3l1,7h-3l-7-10l-2-4l-3,1l-4-6l-6-10l1-3l3,2l2,7l2,1v2l5,2v2h2l1-2h2v4l3,2l2-7l-1-5l-4-3l1-7l1,4l-1,2h3l-2-7l1-5V292l-1-5Z" fill="#D59288"/>
<path d="M763,371h5l2,3l2,17h6l-1,4l-7,1l-3-4l-3-13l-8,19l-5,1l-2-7l-1-10h-2l-1,5l-6,17l-5,1l-2-6V380l4-1l2,2l1,6l5-10l2-3l5,1l2,3l2,9l6-14Z" fill="#955651"/>
<path d="M331,472l2,4l-5,3l-5,6l-4,1v-2l-2-1l8-8l4-1Zm-34,2l1,3l-2,5l-1,7h2v2l2,1l-2,6l-4,8l-4,4l5-1l14-20l4,1l-6,7l10-10l2,1l-2,5l-5,3l-5,6l5,2l1,1l10-1l1,3l-16,6l-9,4l-7-1l-5,6h-1l-1-8l4-17l5-15Z" fill="#E49C95"/>
<path d="M817,329l3,1v14l5-3l4,1l-1,3l-9,6v21l2,4l5-1l10-11l2-14l4-1l1,1v17l1,2l8-1l-1,4l-3,2h-7l-3-4v-2h-2l-2,5l-6,7l-4,2h-5l-5-6l-2-7l-1-13l-4,3l-4-1l1-4l7-5h2v-9l2-9Z" fill="#955651"/>
<path d="M888,336l5,1l2,4l2,15h6l-2,4l-6,1l-3-3l-2-7v-7l-2,1l-7,17l-2,2l-4-1l-2-7v-9l-3,3l-7,19l-4,1l-2-2V344l4-1l1,2l1,9l5-12l3-3l5,1l2,4v10h2l1-6l5-10Z" fill="#94544F"/>
<path d="M1022,609l4,1v26l-1,8v18l2,8l6-2l5-6h2V651l3-7h3l1,5v16l7-3l3-1l-1,4l-4,4l-7,1l-5-4l-5,7l-3,2h-7l-4-5l-2-7V639l1-25Z" fill="#965752"/>
<path d="M1038,372l4,2l1,40l7-9l4-3l4,1l-1,4l-8,8l-2,3l1,5l8,4l11,1l-2,4l-2,1h-8l-12-6v11l-5,1l-1-1l-1-43V374Z" fill="#975853"/>
<path d="M416,223l5,1l-7,14l-2,11l-1,11h-2l-2-14l-5,5l-7,8l-5,6v-3h-2l1-5h2l1-7l-4-2v-5l-6,1v-2l16-9l10-5l3-3Z" fill="#DD8286"/>
<path d="M333,617l2,1l-3,2Zm51-10h2l-2,5l-6,7l-8,7l-11,9l-12,7l-16,7l-17,5l-6,1l-2-1l2-3h-7l-7,10l-3-4l3-11l4-11l2-7h2v8l-3,9v2l6-2l5-7l4-3h4l2-4l5-4l3-7l3,2l-5,7l-2,4l-4,2l-2,6l-6,4l-3,4l2,1v2l18-6l1-5l2,1v2l5-1l9-4l4-3l1-7l9-1l4-1l2-2l1-4l7-2l5-6l2-5Z" fill="#EE9796"/>
<path d="M429,518h5l1,4l-7,4l-7,11l-8,16l-8,23l-3,5l-1-3l1-4l-1-5l1-2h3l-2-5v-4l-3-1l-1-4l-2-4l-3,3l-2-1l14-14l14-10l5-3h2l-1-5Z" fill="#E38485"/>
<path d="M428,996l5,1l28,28l11,9l8,7l9,7l3,2v5l-5,1l-17-13l-15-15l-8-7l-22-22Z" fill="#CE8B87"/>
<path d="M908,555h9l2,2l1,17l2,4l6,1l-2,4l-6,1l-5-6l-2-5l-6,9l-4,3l-5-1l-3-1v-2l-3-1l4-5l4-11l6-8Z" fill="#93544E"/>
<path d="M748,482l10,1l1,1l1,15l2,5h7l-2,4l-3,2l-5-1l-4-5l-2-3l-6,8l-3,3h-5l-2-2V498l5-10Z" fill="#965651"/>
<path d="M283,415l1,2l4-1l1,5l-6,32l-7,45l-1,11l-4-1l-1-12l6-42l4-20Z" fill="#DF938D"/>
<path d="M860,685l4,1l1,1v11l-4,11l-5,4l-5-1l-5-5l-1-5h-2l-2,6l-6,11l-5,2l-4-4l-2-12v-8l5-1l1,1l1,16h2l2-6l6-11l2-2l4,1l6,11l3,1l3-9V686Z" fill="#955551"/>
<path d="M320,839l3,3l8,15l6,9l2,1l8,16l11,19l6,10l-1,3l-6-1l-8-13l-12-21l-6-11l-14-28Z" fill="#C67D78"/>
<path d="M724,492l5,1l1,4v8l-3,9l-4,5h-6l-5-5l-2-5h-2l-2,6l-6,11l-1,1h-5l-2-2l-3-14v-7l5-1l1,1l1,16h2l2-5l7-13l4-1l4,6l3,5h3l3-8Z" fill="#955651"/>
<path d="M921,417l3,1l-1,14l6-3h4v3l-9,6h-2l1,22l2,3l5-1l8-9h2l-1,6l-7,8l-4,2h-6l-4-5l-2-6V443l-6,4l-3-1l1-4l8-6l3-17Z" fill="#955752"/>
<path d="M307,364l1,4l-1,7l4-5h3v3l5-1l-5,5l-11,9l-12,23l-2,10l-2-2h-3l1-16l2-18l3-3l1,1l1-10h1l1,18l8-13Z" fill="#BC5256"/>
<path d="M240,698l3,3l5,10l2,6l11,24l2,3h-4l-11-11h-3l-2-1l2,5l1,4l6,1l1,5l-4,1l-7-2l-11-1l-2-2l1-1l8-1l4-12l-3-2h-3l-2-3l-3-1v-3h2l-3-5l4,2l2,3h8l1,6l2-1l1-5l-8-18Z" fill="#DB9490"/>
<path d="M155,832l17,1h12l9-1h13l-1,2l-9,1l-20,2l2,4l6,1l4,1v-2h4l2,2l3-3l3,1l-2,3l2,1v2l2,1l-9,4v-2l-5-2h-3l-5-2v-2l-3,2l6,8l1,6l-4-2l-6-8l-11-11l-9-3Z" fill="#DFA093"/>
<path d="M577,530l8,1l5,6v9l-5,8l-6,4l-6-1l-4-5v-8l4-8Z" fill="#965854"/>
<path d="M708,720l7,1l5,6v7l-3,7l-4,5l-4,2l-7-1l-3-5v-8l3-6l3-5Z" fill="#945651"/>
<path d="M1092,629h7l2,2l-1,7l-6,9l-4,3h-2l2,5l7-1l8-7l5-5h2l-1,4l-6,8l-7,6l-3,1h-7l-5-5l-1-7v-7l1-2h2l2-6Z" fill="#9D645E"/>
<path d="M712,384l8,1l5,5v10l-6,9l-3,2h-8l-4-6v-8l7-12Z" fill="#925551"/>
<path d="M238,563h2l6,25v3h-2v10l-3,1l-2-4l-3-1v-3l-4-2l-2-3l-1-7l-1-2l-1,3h-2l-1,3l-3-1l-1,4l-3,1l2-9h4l2-2v-7l5,2h3l3-3Z" fill="#ECB9B0"/>
<path d="M791,358h5l2,2v7l-4,7l-6,6h-2l3,5l6-1l10-9l3-4h2l-1,5l-8,10l-8,5h-6l-5-4l-2-5l1-10l5-10Z" fill="#9A5D58"/>
<path d="M1015,417h5l2,3l3,15l5-3l3-4h2v5l-5,6l-7,1l-4-5l-2-11h-2l-2,5l-7,17h-5l-1-1V421l5-1l1,1l1,8l6-10Z" fill="#945651"/>
<path d="M915,323l7,1l1,7l-4,8l-7,6l1,4l7-1l8-7l6-5l-1,6l-9,10l-6,3h-8l-3-3l-2-6l1-10l4-8Z" fill="#9A5F5A"/>
<path d="M842,460l4,1l5,2l3,4v8l-4,8l-6,5h-6l-4-4V472l6-10Z" fill="#935651"/>
<path d="M174,321l4,2l13,13l9,7l8,7v3l-2-1v-2l-7-2l-1-4l-4-1l-1-2l-4-1l2,6l5,3v4l-5,2l-4-2l-1-8l-3,3l2,13l-3,6h-2l-1-19l-3-17l-3-6Z" fill="#D68283"/>
<path d="M780,588l5,1l2,2l3,15l4-2l4-4h2l-1,5l-5,6l-7,1l-4-6l-1-11h-2l-2,5l-6,14l-2,4l-5-1V593l4-2l1,1l1,11l6-12Z" fill="#93544F"/>
<path d="M1006,531h6l2,2v7l-4,6l-6,6h-2l2,5l7-1l8-7l4-4h2l-1,4l-6,8l-5,4l-4,2h-6l-5-4l-2-5l1-10l5-10Z" fill="#995E59"/>
<path d="M943,627h2l1,2v22l-1,8v23l2,5h5l5-5h2v5l-7,6h-7l-5-6l-1-4V659l1-27Z" fill="#94544F"/>
<path d="M419,520h7l1,4l-10,6l-13,10l-11,11l5-3l1,5l-11,1v-5l4-2l4-6l2-6l4,1v-6l-8-2v-2l11-4l11-1Z" fill="#E59692"/>
<path d="M243,732h4l7,6l6,6l4,1l3,5l8,6l8,8l-1-11l2,2l3,15h-4l-2,2l-15-16l-15-8l2-1l-1-5l-6-1l-3-5Z" fill="#B7585A"/>
<path d="M326,885l4,2l10,13l1,6v4l-5-1l-4-2l1,4l8,3l5,1v6H329l-6,2l-13,2h-6l2-2l5-3l4-3l1,3l5-1l3-2v3l6-5l1-5h-2l-2-4l-3-3l5-2l6-2l-4-6v-2l-6-1Z" fill="#EBB9AE"/>
<path d="M228,579l2,3l1,7l5,5v3l4,1l1,4l2-1l1-10h2l2,6v5h-2l2,10l2,4l-1,3l-4-2l-7-5l-8-4l-4-1v-3l5,1v2l4-2l-5-5l-3-9l-3-1l-1-3h2v-4h2Z" fill="#DA9288"/>
<path d="M94,605h6l15,4l10,4l3,2l5,1l-1,3h2l1,4l-5,1l-3-1v2l-5-2l-5-3l-2,1l-6-3h-4l-5-5l-7-5Z" fill="#EFB8A8"/>
<path d="M254,423h2v7l2,1v5h2l1,8l1,1v14l-5-1l-6-9l-1,5l-1-4l-1-5v-3l-3-2v-7l5-5Z" fill="#E58C8F"/>
<path d="M332,782l7,4l-3,2l-1,13l5,5l2-6l5,2l-2,3h-2l3,3l6,2v-2l4,1l-14,14h-5l-3-9l-2,1l-1-21Z" fill="#DF9F96"/>
<path d="M302,169h3l-1,7l-4,11l-4,3l-5,16l-3-2l1-5l-11-1l-3,2l2-5l15-15l5-3Z" fill="#DF9389"/>
<path d="M474,788l4,1l-2,9l-1,16l-2,2l-4-1v2l-9,1l1-7l1-4l-9,6l-1,3l-6,2l2-4l14-11l7-8Z" fill="#E3A598"/>
<path d="M947,309l4,2l-1,4l-5,3l-4,8l14,1l3,3v6l-7,8l-5,4l-4,2h-4l1-6l7-3l6-6v-3l-13-1l-3-3v-6l6-9Z" fill="#91524D"/>
<path d="M235,381l4,2l11,19l8,19l-1,10l-2-1l1-7l-9,9l-4-3l-2-5v-8h8l-2-12l-2-1l-1-3l-2-2v-4l-2-1l-2-8h-3Z" fill="#DF7B80"/>
<path d="M839,571h5l2,2l-1,5l-5-1l-4,5l-2,6v6l2,3l7-1l8-7l5-6h2l-1,5l-8,10l-8,5h-8l-4-4l-1-3v-9l6-12Z" fill="#92534E"/>
<path d="M297,474l1,3l-2,5l-1,7h2v2l2,1l-2,6l-4,8l-4,4l5-1l2,1v3l9-2l4-2l4,1l-15,7l-7-1l-5,6h-1l-1-8l4-17l5-15Z" fill="#E19D91"/>
<path d="M419,900h6l1,5l2,5l-1,6v6l-1,2v6l3-2l-1,4l-2,2l2,1v-2h4l-2,4h-6l-1-1V926l2-8h-2l-1,4l-1-5l-2,1l-2-1v-2l-3-1l-4-10v-3h3v2Z" fill="#EBB0A8"/>
<path d="M333,617l2,1l-3,2Zm-5,3l3,2l-5,7l-2,4l-4,2l-2,6l-6,4l-3,4l-8,2l-7,10l-3-4l3-11l4-11l2-7h2v8l-3,9v2l6-2l5-7l4-3h4l2-4l5-4Z" fill="#E49493"/>
<path d="M389,949l5,5l9,10l7,8l4,5l4,4l1,3l-5,2l-10-10l-9-11l-11-13v-2Z" fill="#AE5856"/>
<path d="M309,353h2v7l8-1l4-1l3-2l-2,4l-4,6h9l9-4l5-1l-4,4l-15,7l-10,1v-3l-3,1l-5,5l1-16Z" fill="#D26E71"/>
<path d="M291,768l3,3l7,21l8,18l1,5l-6,1l-6-12l-4-10l-3-7l-1-4l3-1l-1-7Z" fill="#B76764"/>
<path d="M417,377h3l-2,4l-4,7l-1,4l-6,5l-2-1l3-4l-5,4l1-4h-4l2-6l-11,4l-3,5h-3l-1-5l4-3l11-4l13-4Z" fill="#EDB4A4"/>
<path d="M340,904l3,1l6,8l10,6h3l2,5l5,6l1,3l-3,1l-4-5l-14-7l-3-1v-6l-9-1l-5-3v-4l9,3Z" fill="#C3766F"/>
<path d="M296,304v3l-2,4l3-1l2,7l-2,6v7l-5,4l-3,4v-7l-1-4h-2v-5h2l-2-10l2-7l3,4Z" fill="#E9B7AC"/>
<path d="M302,649l6,2v3h2v2l-12,7l-7,6l-5,7l-2,3l-3-1v-6l6-9l3-6l3-1l1,4l7-10Z" fill="#CB716F"/>
<path d="M416,223l5,1l-2,4l-7,4l-4,5v6h-2l-1-2l-2,2l-2,6l-3-1l-1-10l-10,3l3-4l17-8l4-4Z" fill="#C7545D"/>
<path d="M118,457l9,1l10,3l1,2h-6l4,5l6,5v3l3,4l-4-2l-4-3l-4-1l2,6l2,4v3h-2l-7-16l-7-8l-3-2Z" fill="#CF6E6D"/>
<path d="M415,915h2v2l5-1l1,2h2l-1,8v10h6l-1,3h-2l-1,5l-3,6l-4,4h-3l1-14l2-3v3l2-1l1-5l-3,1l-3-16Z" fill="#DC938E"/>
<path d="M271,690h4l1,9l2,1l4,24v4l-6,3l-3-15l-3-23Z" fill="#D08481"/>
<path d="M361,309l1,2l5-1l1,5l-5,2l-7,6l-2,7l-6,3l-5,5l-10,11v3l-2,1l3,2l-6,2l-2,1l1-5l14-17l9-12l10-14Z" fill="#E69191"/>
<path d="M401,909h2v2l3,1l-2,4l4,13l1,3l4,1l4-4h1l-1,10l-2,11h-4l-3-6l-3-10l-4-16Z" fill="#D78983"/>
<path d="M287,383l2,4h2v8l7-4v5l-7,13l-2,10l-2-2h-3l1-16Z" fill="#BE6764"/>
<path d="M230,715l4,2l9,10l4,4l-1,3l-3-2l2,5l1,4l6,1l1,5l-4,1l-7-2l-11-1l-2-2l1-1l8-1l4-12l-3-2h-3l-2-3l-3-1v-3h2Z" fill="#E08182"/>
<path d="M210,697l5,2l2,2l5,2l2,5l8-1l7,1l3,3v5l-4,2v3l-3-1l-2-2l-1,2l-16-17l-6-4Z" fill="#E7A6A2"/>
<path d="M267,556h1v6h2v-2l2,1l-2,12l-2,25h-1l-1-9l-3,1V569l2-12Z" fill="#CD837E"/>
<path d="M333,802h1l1,12l2,3v6l5-1l-3,9l-2,5l-1,19h-1l-1-7l-2-2v-4h-2l2-12Z" fill="#C6706B"/>
<path d="M262,581h1l1,8l3-1l1,10v29h-1v-6l-3,1l-2-1Z" fill="#D08B85"/>
<path d="M284,325h2v2l3-1l1,8v17l-2-3l-1-2l-1,3h-5l-5-10l-6-8v-2h2l6,8l4,6l1-1l-2-9l2-1Z" fill="#CC7E74"/>
<path d="M133,474l5,1l5,4l5,2l9,10l-1,2l-4-2l-4,1l-2-2v-3l-9,3l-1-3l-1-6l-2-2Z" fill="#E79995"/>
<path d="M320,839l3,3l8,15l6,9l2,1l3,7l-1,3l-3-5v-2l-6,1l-8-15l-7-15Z" fill="#C4736D"/>
<path d="M140,619l9,3l12,5l1,2l-1,2l-3-1l-1-2l-10-3l-5,1l-1,9l-5,3l-3-7l-3-4l8-3Z" fill="#E1A497"/>
<path d="M267,669l5,2l2,12v6h2l2-6l3-1l1,4l-4,14l-3-1v-9h-4l-1,3l-3-22Z" fill="#C17771"/>
<path d="M282,285l3,1l1,6v7h2v4h-2v5h-2l-1,11l-5-2l-1-5l2-3l-1,6h3l-2-7l1-5V292l-1-5Z" fill="#E7B3A8"/>
<path d="M1072,403l4,1v19l9-2l-1,4l-3,3h-7l-4-5V405Z" fill="#95554F"/>
<path d="M142,676h3l7,8l5,1l2-2l4,1l-3,3h-5l2,8l-5,1l-8-9l-2-3v-4l-2-1Z" fill="#F1B4AB"/>
<path d="M228,579l2,3l1,7l5,5v3l4,1l1,4l-2-1v-2h-2l-1,4l1,4l-5,2l-6-2v-3l5,1v2l4-2l-5-5l-3-9l-3-1l-1-3h2v-4h2Z" fill="#E4A9A0"/>
<path d="M174,321l4,2l9,9v3h-2v6l-4-1v9l-2-1l-3-17l-3-6Z" fill="#B75A5D"/>
<path d="M326,885l4,2l10,13l1,6v4l-5-1l-9-3l-3-3l5-2l6-2l-4-6v-2l-6-1Z" fill="#E6ADA1"/>
<path d="M343,735l2,1l-1,5l1,4l-5,7v5l-3,3l-2,16v6l-2,1l-1,11h-1V778l4-23l6-16Z" fill="#EEBBAE"/>
<path d="M401,397h4l-1,5l-8,7l-7,6l-6,3l-5,4l1-4l4-6h3l5-4l3-2l-1-3l-2,1v-5Z" fill="#EFBBAD"/>
<path d="M334,870h4l3,6l3,1l6,11l-2,6h-3l-12-21Z" fill="#CC8882"/>
<path d="M263,454h2v40l-5,1l-4,1l-6-7l1-2l6,5l-1-6h2l1-2l4,3l-1-22Z" fill="#CC6165"/>
<path d="M396,527h6l2,2v6l6-1l-17,17l5-3l1,5l-11,1v-5l4-2l4-6l2-6l4,1v-6l-6-2Z" fill="#EDADA5"/>
<path d="M429,518h5l1,4l-7,4l-7,11l-8,15l-1-3l3-7l2-5l1-6l-2-1l9-6h2l-1-5Z" fill="#C34D53"/>
<path d="M291,515l7,1l-1,3l-6,4l-8,10l-4-1l-1-3l5-12l2-1l1,5Z" fill="#CB7570"/>
<path d="M419,977h3l3,9l6,9l-1,2l-5,1l-11-11l4-4v-5Z" fill="#C17570"/>
<path d="M683,765h1l-1,9l-4,11l-5,6h-3l1-9l7-12Z" fill="#F4EEEA"/>
<path d="M288,502h1l-1,9l6-2l2,1v3l9-2l4-2l4,1l-15,7l-7-1l-5,6h-1l-1-8l3-11Z" fill="#DA8D86"/>
<path d="M393,238h4l2,9l2,3l-4,1l-4,4l-2-6l-3-1v-5l-6,1v-2l5-2Z" fill="#D77175"/>
<path d="M273,476h2l-1,8h3v8l-2,17l-4-1l-1-12Z" fill="#D68480"/>
<path d="M479,1041l7,4l6,5v5l-5,1l-13-10l1-3Z" fill="#DE9A92"/>
<path d="M197,840l3,1l-2,3l2,1v2l2,1l-9,4v-2l-5-2h-3l-5-2v-2l-4,1v-2l8-1l4,1v-2h4l2,2Z" fill="#E1A399"/>
<path d="M709,726l5,1l1,7l-5,8l-4,1l-2-3l1-8Z" fill="#F2EBE7"/>
<path d="M331,472l2,4l-5,3l-5,6l-4,1v-2l-2-1l8-8l4-1Zm-15,15l2,1l-2,5l-5,3l-7,6l-4,2l2-4l12-11Z" fill="#E7ADA3"/>
<path d="M790,513h1l-1,9l-3,9l-5,6h-3l1-9l6-10Z" fill="#F4EEEA"/>
<path d="M262,493l3,1l3,16h2l-1,6l-3-2l-3-1l-3-10l-3-6v-2Z" fill="#AF4B4C"/>
<path d="M300,628h2v8l-4,8l-1,4l5,1l-7,11l-2,1l-2-6l3-9l4-11Z" fill="#E08D89"/>
<path d="M106,617l5,1l5,2l2-1l4,4v2l2,3l-5,1l-1,2l2,6h-2l-3-6l-8-11Z" fill="#D78277"/>
<path d="M844,466l4,2l1,1v6l-4,6l-2,2h-3l-1-2v-8l4-6Z" fill="#F3EDE8"/>
<path d="M714,390l5,1l1,7l-4,6l-2,2l-4-1v-9Z" fill="#F5F0EA"/>
<path d="M377,275h2l-1,5l2,1l-4,4l-3,4l2,4l-6,7v-3l-3,3h-2v-5l4-4l4-8l2-3h2Z" fill="#E68D8F"/>
<path d="M291,768l3,3l7,21l1,6l-2-4l-5,1l-2-2l-2-6l-1-4l3-1l-1-7Z" fill="#AF5050"/>
<path d="M409,756l1,3l-7,12l-12,14l-7,7h-2l2-5l5-5l6-8l9-9l3-7Z" fill="#F5C1B0"/>
<path d="M921,677l5,1l1,7l-4,6l-2,2l-4-1v-8Z" fill="#F5EFEB"/>
<path d="M579,536l5,1v10l-4,5l-5-1v-8Z" fill="#F6F3EF"/>
<path d="M235,381l4,2l11,19l5,11l-1,4l-2-4h-2v-5h-2l-1-4l-2-1l-1-3l-2-2v-4l-2-1l-2-8h-3Z" fill="#D25E64"/>
<path d="M402,965l7,6l5,6l4,4l1,3l-5,2l-9-9v-5l-3-3Z" fill="#AA4E4F"/>
<path d="M340,904l3,1l6,9l-1,3h3l-1,5l-4-1v-6l-9-1l-5-3v-4l9,3Z" fill="#D59187"/>
<path d="M263,628l2,3v15l3-1l2,1l1,8h-5l-1-5h-2l-5-13v-3h3Z" fill="#C9867C"/>
<path d="M138,462l10,2l1,3h-4v6h-2v2l3,1l-1,2l-5-3v-3l-8-7v-2Z" fill="#E69691"/>
<path d="M416,223l5,1l-2,4l-7,4l-4,5v6h-2l-1-2l-5,4v-4l5-3l4-7l-5,1l5-5l5-3Z" fill="#BF4550"/>
<path d="M464,1029l5,2l7,6l3,3l-1,3h-3v2l-5-2l-7-7l1-2h2Z" fill="#C97D78"/>
<path d="M418,937l1,3l4-2h4l-1,6l-3,6l-4,4h-3l1-14Z" fill="#D58982"/>
<path d="M330,842h2l2,5l1,1l1,7l1,1v11l-4-5l-7-12l1-2l1,3h2Z" fill="#B24F4B"/>
<path d="M282,753l2,2l3,15h-4l-2,2l-7-8l1-5l-3-4l4,2l7,7Z" fill="#9A3B3E"/>
<path d="M1136,387l4,1l-2,9l-6,10h-2V397Z" fill="#F1E9E6"/>
<path d="M404,382h4l-3,9l-5,1l2-6l-11,4l-3,5h-3l-1-5l4-3l11-4Z" fill="#DF9A8B"/>
<path d="M303,319l1,4l-8,20l-4,15l-2-1v-6h2V341l2-7l5-5l1-8Z" fill="#DA9284"/>
<path d="M474,788l4,1l-2,9l-1,16h-2l-1-14l-3,2l-1-4l4-8Z" fill="#E09488"/>
<path d="M240,698l3,3l5,10l2,6l2,5h-2l-2,6h-5l-5-5v-2l6-1l1,6l2-1l1-5l-8-18Z" fill="#E9AEA7"/>
<path d="M978,544l3,1l-1,7l-4,8l-3,3h-2v-8l4-8Z" fill="#F5F0ED"/>
<path d="M309,353h2v7l8-1l2-1l1,3l-6,7l-1-2l-6,2l-2-4l1-6Z" fill="#E1898A"/>
<path d="M248,601l2,4l6,16l1,2l-2,3l-3-1l-4-6l1-5l-3-5v-7Z" fill="#DFA79C"/>
<path d="M909,560h3l-1,7l-5,9l-3,3h-2l1-8l4-8Z" fill="#F2EAE6"/>
<path d="M1110,642h2l-1,4l-6,8l-7,6h-5l-2-3l9-5Z" fill="#92534E"/>
<path d="M742,600h4l-1,5l-6,12l-4,2v-7l5-10Z" fill="#F1E8E3"/>
<path d="M155,832l17,1l1,3h-4v3h-2l-1,3l-3-3l-9-3Z" fill="#D68D83"/>
<path d="M330,641l2,1v2l5-1l1-1h5l-2,3l-10,4l-17,5l-6,1l-2-1l2-3l-3-1l2-2v2h4v2l18-6Z" fill="#E88788"/>
<path d="M413,959h1v5h3l3,3l1,5v7l-2-1l-2,3l-1-3l-2-1l-1-8Z" fill="#CA7672"/>
<path d="M243,732h4l7,6l3,4l-3,1v2h2v3l-4,1l-1-2h2l-1-5l-6-1l-3-5Z" fill="#CB6A6B"/>
<path d="M401,909h2v2l3,1l-2,4l4,13l1,3l4,1l4-4l1,3l-2,1l-1,3l-5,1v-2l-3-1l-1-4l-2,2l-2-12l-1-2Z" fill="#E6A59F"/>
<path d="M435,681l1,2l-9,26l-2,9l-2,1l1-10l2-9h2l2-15Z" fill="#EEBEAB"/>
<path d="M749,487h3l-1,7l-6,11l-3,1v-8l6-10Z" fill="#F2EAE7"/>
<path d="M292,371h1l1,18l3-4l2,1l1,6l-3,3v-3l-4,3h-2v-8l-3,1v-7h3Z" fill="#A43F41"/>
<path d="M283,769l4,2l-1,3l6-2l2,5v5l-5,2l-8-12Z" fill="#BE6464"/>
<path d="M417,394l1,3l-1,2h-2l-2,9l-4,12l-4,7l-1-3v-7l3-1l2-6l1-7l3-1v-6Z" fill="#EDA592"/>
<path d="M302,649l6,2v3h2v2l-8,4l-6,2l1-7Z" fill="#D77B7A"/>
<path d="M181,340l3,1l2,4l-3,3l2,13l-3,6h-2V349Z" fill="#E39190"/>
<path d="M332,830l1,2h5l-1,4l-1,19h-1l-1-7l-2-2v-4h-2Z" fill="#CC8079"/>
<path d="M227,575h2l3,8v3h2v7l-4-4l-1-7l-1-2l-1,3h-2l-1,3l-3-1l-1,4l-3,1l2-9h4l4-2Z" fill="#E7B0A8"/>
<path d="M132,617l7,1l1,3l-2,4l-7,3l3,4l-4-2l-8-6h3l2,1v-2h7v-4h-2Z" fill="#D98F80"/>
<path d="M298,858l5,2l8,7l5,6l6,4l3,4v2l-5-2l-8-7v-3l-3-1l-3-5l-4-3l-4-1Z" fill="#EEB4A7"/>
<path d="M187,336l6,1l7,6l8,7v3l-2-1v-2l-7-2l-1-4l-4-1l-1-2l-4-1l-1,4l-1-1Z" fill="#E28C8B"/>
<path d="M399,553l2,1v3l2,1l2,9h-3l1,9l-4,12l-2,1l1-7l2-5v-9l1-7l-4,2v-4Z" fill="#F1AAA6"/>
<path d="M333,617l2,1l-3,2Zm-5,3l3,2l-5,7l-2,4l-4,2l-2,6l-1-4h-2l-2,4l-4,3l2-4l-1-2l4-3h4l2-4l5-4Z" fill="#ECA8A6"/>
<path d="M340,361l3,1l-8,5l-11,5l-5,1l-2-1l3-6h9l9-4Z" fill="#DE7779"/>
<path d="M415,229h2l-3,9l-2,8h-3l-2-9l5-6Z" fill="#D3656C"/>
<path d="M302,169h3l-1,7l-4,11l-4,2l1-5l2-6l-2-1Z" fill="#E4AC9E"/>
<path d="M280,728l3,1l1,11l-3,1l-2,4l-1-1l-1-15Z" fill="#BD6362"/>
<path d="M228,579l2,3l1,7l4,5l-1,2l-2-2h-4l-1-3l-3-1l-1-3h2v-4h2Z" fill="#DC968D"/>
<path d="M393,960l7,1l3,4l1,5l2,2l-1,4l-5-5l-8-9Z" fill="#BC6F6D"/>
<path d="M425,913l2,3v6l-1,2v6l3-2l-1,4l-2,2l2,1v-2h4l-2,4h-6l-1-1V926l1-8Z" fill="#E7A69F"/>
<path d="M228,831l16,1l17,4l1,2l-9-1l-5-1l-5,1l-2-1v-2H229Z" fill="#EDA399"/>
<path d="M180,367l3,1l-1,4l2,1l-1,1v11l1,3v10h-2l-1-2l-1-9Z" fill="#F3A9A5"/>
<path d="M344,275l6,1l-1,5l-2-3l-7,8l-7,9h-2l2-5l8-12l3-1Z" fill="#F2B3AF"/>
<path d="M132,665l7,3v2l4,2v2h3l-1,3h-3l-1,2h-2l-7-12Z" fill="#DE807D"/>
<path d="M477,846h2v13l-2,12l-2,7l-2-1v-8h2Z" fill="#F5BFB1"/>
<path d="M361,309l1,2l5-1l1,5l-5,2l-8,6l1-5l2-5Z" fill="#F0A4A3"/>
<path d="M281,673l1,2l-1,3h3l-1,5l-2,1v-2l-3,2l-2,5h-2l-1-6v-9l2,2v7h2l1-6Z" fill="#A94C4A"/>
<path d="M279,682h2l1,4l-4,14l-3-1v-8l3-8Z" fill="#BE6762"/>
<path d="M259,311l4,2l2,7l2,1v2l5,2v2h2l1-2h2v6l-8-1l-4-6l-6-10Z" fill="#E3A497"/>
<path d="M193,832h13l-1,2l-9,1l-20,2l-2,1l1-4Z" fill="#D6867D"/>
<path d="M291,515l7,1l-1,3l-6,4l-4,4l-3-3Z" fill="#C36664"/>
<path d="M251,257h4l-1,5l-2,4v10l1,5l-2,4l-2-4V269Z" fill="#F2BAA8"/>
<path d="M421,987l5,1l5,7l-1,2l-5,1l-5-5Z" fill="#B05C5A"/>
<path d="M268,573h1v15l-1,10h-1l-1-9l-3,1v-9l4-2Z" fill="#C77672"/>
<path d="M295,178h4l-1,6l-4,13l-2,1l1-8l1-5l-3-1l1-4Z" fill="#C9655A"/>
<path d="M241,604l5,3l3,6l1,3l-1,3l-4-2l-1-5l-5-4v-3Z" fill="#C67A71"/>
<path d="M286,366h2l1,2l4-2l-1,17l-4-2l-1-9Z" fill="#B76E6A"/>
<path d="M255,870h8v4l4,1l3,2v3h-5l-1-3l-8-3Z" fill="#EFC3B9"/>
<path d="M230,715l4,2l9,10l4,4l-1,3l-4-1v-4l-3-2h-3l-2-3l-3-1v-3h2Z" fill="#D67978"/>
<path d="M148,622l12,4l2,3l-1,2l-3-1l-1-2l-10-3l-5,1l-1,9h-1V623Z" fill="#EAB5A6"/>
<path d="M397,398h6l-10,12l-5,4l-2-1l8-7l-1-3l-2,1v-5Z" fill="#E5A194"/>
<path d="M398,266h10l-6,8l-5,3h-2l2-10Z" fill="#F0A9A6"/>
</svg>